<?xml version="1.0" encoding="UTF-8"?>
<svg version="1.1" xmlns="http://www.w3.org/2000/svg" width="500" height="500">
<path d="M0 0 C165 0 330 0 500 0 C500 165 500 330 500 500 C335 500 170 500 0 500 C0 335 0 170 0 0 Z " fill="#FEFEFE" transform="translate(0,0)"/>
<path d="M0 0 C0.66773438 0.28939453 1.33546875 0.57878906 2.0234375 0.87695312 C11.42829452 4.99376321 19.4881255 9.899906 27 17 C28.10214844 18.02287109 28.10214844 18.02287109 29.2265625 19.06640625 C32.29201184 22.18681384 34.41935406 24.65704072 34.75 29.125 C33.81034385 33.97989012 32.49591098 35.587325 29 39 C25.73952371 40.63023814 23.62198965 40.4673535 20 40 C15.43021836 37.06100318 11.95954718 33.0107314 8.5 28.875 C2.42271995 21.79627199 -3.89682126 19.25918917 -13 18 C-36.08424107 16.30061571 -54.06512142 19.05552752 -72.3125 34.1875 C-81.99266515 43.28433273 -89.69196763 57.34315523 -90.3359375 70.71484375 C-90.67698492 90.32694414 -87.39531673 106.84491264 -73.58056641 121.64575195 C-62.2414182 133.10688703 -47.57502039 140.08031035 -31.375 140.5 C-13.08811931 139.73405735 3.40299532 133.53358496 16 120 C16.63164062 119.33742188 17.26328125 118.67484375 17.9140625 117.9921875 C27.51213337 106.87195562 31.06628731 93.32963147 32 79 C29.36 79 26.72 79 24 79 C24.61075369 76.00693527 25.54678852 73.85883138 27.22265625 71.3125 C27.67535889 70.61890381 28.12806152 69.92530762 28.59448242 69.21069336 C29.07892822 68.48116455 29.56337402 67.75163574 30.0625 67 C30.55403564 66.25049072 31.04557129 65.50098145 31.55200195 64.72875977 C33.02830728 62.48156162 34.51273676 60.2399574 36 58 C36.42958008 57.35144043 36.85916016 56.70288086 37.30175781 56.03466797 C39.52346046 52.68232556 41.75582004 49.33733352 44 46 C46.63300219 49.28961624 48.58913532 52.7684541 50.57421875 56.48046875 C50.90291458 57.09392654 51.23161041 57.70738434 51.57026672 58.33943176 C52.26011061 59.62867395 52.94833079 60.91878613 53.63500977 62.2097168 C54.69068492 64.19348493 55.7521687 66.17406149 56.81445312 68.15429688 C62 77.85882671 62 77.85882671 62 79 C59.03 79 56.06 79 53 79 C53.0825 80.134375 53.165 81.26875 53.25 82.4375 C53.21549855 104.31141818 41.89189045 123.89383774 27 139 C26.34128906 139.67160156 25.68257812 140.34320313 25.00390625 141.03515625 C8.82369281 156.31066959 -13.7174547 161.69626725 -35.328125 161.31640625 C-46.07754659 160.88331256 -56.5464287 158.58425169 -65.82421875 152.953125 C-68.91116484 151.60085418 -70.64215106 151.46209216 -74 152 C-76.8435903 153.7255499 -79.30280391 155.82574622 -81.8125 158 C-83.15098755 159.12661322 -84.49076013 160.25170215 -85.83203125 161.375 C-86.41702393 161.87773437 -87.0020166 162.38046875 -87.60473633 162.8984375 C-89 164 -89 164 -90 164 C-89.85764543 162.27054347 -89.71095618 160.54144346 -89.5625 158.8125 C-89.48128906 157.84957031 -89.40007812 156.88664063 -89.31640625 155.89453125 C-89.02303776 153.2107528 -88.5473622 150.64123985 -88 148 C-87.42233864 142.96609384 -87.41387516 140.26887919 -90.5 136.1875 C-91.65896319 134.78526388 -92.82635633 133.38997206 -94 132 C-108.8437513 112.94462879 -116.09428154 91.11988511 -114 67 C-110.83784292 44.71245488 -98.64827595 24.81390233 -81 11 C-57.94920035 -5.34893743 -26.52058916 -11.98079247 0 0 Z " fill="#034CAE" transform="translate(276,111)"/>
<path d="M0 0 C3.43749294 1.89701176 5.50103811 4.06399949 7.75 7.3125 C8.73230498 8.3298873 9.72469597 9.33846117 10.75 10.3125 C10.95625 9.425625 11.1625 8.53875 11.375 7.625 C13.15866164 3.32799696 14.98852818 1.99926558 18.75 -0.6875 C22.81513557 -2.04254519 26.49945232 -2.22425858 30.75 -1.6875 C34.5526029 0.3175088 36.36790841 1.73936262 38.75 5.3125 C39.08 3.3325 39.41 1.3525 39.75 -0.6875 C41.4 -0.6875 43.05 -0.6875 44.75 -0.6875 C44.75 10.5325 44.75 21.7525 44.75 33.3125 C43.1 33.3125 41.45 33.3125 39.75 33.3125 C39.255 30.3425 39.255 30.3425 38.75 27.3125 C38.21375 28.09625 37.6775 28.88 37.125 29.6875 C33.58744943 33.59742432 30.44058584 34.12807245 25.3125 34.6875 C20.98265797 34.23172715 18.10583363 33.08106275 14.75 30.3125 C13.40783025 28.31841923 12.0727887 26.31948975 10.75 24.3125 C9.43 24.3125 8.11 24.3125 6.75 24.3125 C6.440625 25.42625 6.440625 25.42625 6.125 26.5625 C4.33315834 30.14618332 2.18888682 31.34742182 -1.25 33.3125 C-6.23079383 34.97276461 -10.55273629 34.91153425 -15.4375 33.1875 C-20.1913272 30.01828187 -23.81891605 25.90673726 -25.25 20.3125 C-25.84519715 14.59435597 -25.59987354 10.17521966 -22.25 5.3125 C-15.76350238 -1.22000115 -8.8322668 -4.09420965 0 0 Z " fill="#0B0B0B" transform="translate(119.25,305.6875)"/>
<path d="M0 0 C6.27 0 12.54 0 19 0 C19.09061729 8.33679047 19.16389703 16.67319362 19.20724869 25.01034546 C19.22806256 28.8822469 19.2562651 32.75379192 19.30175781 36.62548828 C19.34543929 40.36674468 19.36918367 44.10765974 19.37950897 47.84915161 C19.38686064 49.27163053 19.40121638 50.69409223 19.42292023 52.11642456 C19.5405905 60.15241169 19.51031254 66.19416813 15 73 C10.29984489 77.57963831 6.53465777 79 0 79 C0 52.93 0 26.86 0 0 Z " fill="#014AAD" transform="translate(267,159)"/>
<path d="M0 0 C6.27 0 12.54 0 19 0 C19 20.13 19 40.26 19 61 C12.73 61 6.46 61 0 61 C0 40.87 0 20.74 0 0 Z " fill="#044DAE" transform="translate(237,180)"/>
<path d="M0 0 C4.58082846 2.53292868 6.88978473 6.02217709 9.75 10.3125 C10.1640625 13.44921875 10.1640625 13.44921875 10.375 17 C10.44976562 18.17949219 10.52453125 19.35898437 10.6015625 20.57421875 C10.65054688 21.47785156 10.69953125 22.38148438 10.75 23.3125 C10.10804688 23.42980469 9.46609375 23.54710937 8.8046875 23.66796875 C7.78761719 23.98701172 7.78761719 23.98701172 6.75 24.3125 C6.46125 25.075625 6.1725 25.83875 5.875 26.625 C4.33724149 30.29853421 2.14995114 31.36967078 -1.25 33.3125 C-6.23079383 34.97276461 -10.55273629 34.91153425 -15.4375 33.1875 C-20.1913272 30.01828187 -23.81891605 25.90673726 -25.25 20.3125 C-25.84519715 14.59435597 -25.59987354 10.17521966 -22.25 5.3125 C-15.76350238 -1.22000115 -8.8322668 -4.09420965 0 0 Z " fill="#FAFAFA" transform="translate(119.25,305.6875)"/>
<path d="M0 0 C1.98 0 3.96 0 6 0 C6 3.3 6 6.6 6 10 C9.63 10 13.26 10 17 10 C17 11.65 17 13.3 17 15 C13.37 15 9.74 15 6 15 C6.495 26.385 6.495 26.385 7 38 C10.3 38.33 13.6 38.66 17 39 C17 40.65 17 42.3 17 44 C7.05873294 44.78346238 7.05873294 44.78346238 2.875 41.6875 C0.32343821 38.03026143 -0.12400543 35.46089616 -0.09765625 31.11328125 C-0.09443359 30.17548828 -0.09121094 29.23769531 -0.08789062 28.27148438 C-0.07532227 26.80678711 -0.07532227 26.80678711 -0.0625 25.3125 C-0.05798828 24.32443359 -0.05347656 23.33636719 -0.04882812 22.31835938 C-0.03704303 19.87884526 -0.02059011 17.43945311 0 15 C-2.31 15 -4.62 15 -7 15 C-7.1542041 15.5667041 -7.3084082 16.1334082 -7.46728516 16.71728516 C-9.58714016 24.16128895 -12.38590916 31.2415751 -15.375 38.375 C-15.84421875 39.53644531 -16.3134375 40.69789063 -16.796875 41.89453125 C-17.26351563 43.00957031 -17.73015625 44.12460937 -18.2109375 45.2734375 C-18.62649902 46.27810059 -19.04206055 47.28276367 -19.47021484 48.31787109 C-21.56330202 51.98762144 -24.24360795 54.12180397 -28 56 C-29.54023996 56.06950541 -31.08334988 56.08452357 -32.625 56.0625 C-33.85089844 56.04896484 -33.85089844 56.04896484 -35.1015625 56.03515625 C-35.72804687 56.02355469 -36.35453125 56.01195312 -37 56 C-37 54.35 -37 52.7 -37 51 C-35.7625 50.95875 -34.525 50.9175 -33.25 50.875 C-29.77887684 50.4109461 -29.0546368 50.04955431 -26.3125 47.5625 C-23.41492479 39.69765299 -29.58334817 29.84698775 -32.6875 22.5 C-33.50705215 20.55340482 -34.32362042 18.60554977 -35.13671875 16.65625 C-35.49467529 15.80869141 -35.85263184 14.96113281 -36.22143555 14.08789062 C-37 12 -37 12 -37 10 C-35.02 10 -33.04 10 -31 10 C-29.4885202 13.57859815 -27.99284249 17.16359161 -26.5 20.75 C-26.07074219 21.76578125 -25.64148438 22.7815625 -25.19921875 23.828125 C-24.79316406 24.8078125 -24.38710938 25.7875 -23.96875 26.796875 C-23.59169922 27.69760742 -23.21464844 28.59833984 -22.82617188 29.52636719 C-22 32 -22 32 -22 36 C-21.34 36 -20.68 36 -20 36 C-19.91878906 35.22398437 -19.83757812 34.44796875 -19.75390625 33.6484375 C-18.73421214 28.71375203 -16.85640837 24.27147588 -14.9375 19.625 C-14.56044922 18.69816406 -14.18339844 17.77132813 -13.79492188 16.81640625 C-12.86875932 14.54203238 -11.9351215 12.27070504 -11 10 C-7.37 10 -3.74 10 0 10 C0 6.7 0 3.4 0 0 Z " fill="#0A0A0A" transform="translate(285,295)"/>
<path d="M0 0 C2.31 0 4.62 0 7 0 C11.22635458 8.96919937 15.18922351 18.02160403 19.00683594 27.17041016 C19.89200476 29.29073301 20.78172195 31.40910918 21.671875 33.52734375 C22.23724305 34.8774937 22.80235738 36.22774992 23.3671875 37.578125 C23.87362793 38.78887695 24.38006836 39.99962891 24.90185547 41.24707031 C26 44 26 44 26 45 C23.69 45 21.38 45 19 45 C16 38.375 16 38.375 16 35 C8.08 35.33 0.16 35.66 -8 36 C-9.32 38.97 -10.64 41.94 -12 45 C-13.98 45 -15.96 45 -18 45 C-16.0700486 38.95839129 -13.89064168 33.08850974 -11.42578125 27.24609375 C-11.09708542 26.45977066 -10.76838959 25.67344757 -10.42973328 24.86329651 C-9.39368719 22.38674815 -8.35318065 19.91210389 -7.3125 17.4375 C-6.60321793 15.74426529 -5.89423091 14.05090697 -5.18554688 12.35742188 C-3.46043384 8.23684632 -1.73132184 4.11797046 0 0 Z " fill="#0B0B0B" transform="translate(366,294)"/>
<path d="M0 0 C6.27 0 12.54 0 19 0 C19 12.54 19 25.08 19 38 C12.13829787 38 12.13829787 38 8.375 35.5 C7.64023438 35.0359375 6.90546875 34.571875 6.1484375 34.09375 C1.32892953 29.39692042 -0.22509088 24.65258062 -0.390625 17.96875 C-0.36432501 15.81215091 -0.31704383 13.65571715 -0.25 11.5 C-0.23195312 10.39140625 -0.21390625 9.2828125 -0.1953125 8.140625 C-0.14852079 5.42670579 -0.0767897 2.71323613 0 0 Z " fill="#064EAE" transform="translate(207,198)"/>
<path d="M0 0 C1.98 0 3.96 0 6 0 C6.33 5.61 6.66 11.22 7 17 C8.65 15.68 10.3 14.36 12 13 C16.24969716 10.87515142 20.91042023 11.64379123 25.25 13.0625 C28.74225078 15.52294941 30.59643007 18.01772924 32 22 C32.47415008 26.32643827 32.37846391 30.59196108 32.25 34.9375 C32.23195312 36.09830078 32.21390625 37.25910156 32.1953125 38.45507812 C32.14841259 41.30424747 32.08279059 44.15168531 32 47 C30.02 47 28.04 47 26 47 C25.98541748 46.29391602 25.97083496 45.58783203 25.95581055 44.86035156 C25.88126833 41.65635326 25.78462795 38.45338984 25.6875 35.25 C25.66494141 34.13882813 25.64238281 33.02765625 25.61914062 31.8828125 C25.5659668 30.27792969 25.5659668 30.27792969 25.51171875 28.640625 C25.48553467 27.65610352 25.45935059 26.67158203 25.43237305 25.65722656 C24.93179102 22.58080939 24.19835431 21.19301926 22 19 C17.57058804 17.92836807 15.30198852 17.43391804 11.125 19.25 C8.50903959 21.40432034 7.12469211 23.04113106 6.68115234 26.4519043 C6.634021 27.87369995 6.634021 27.87369995 6.5859375 29.32421875 C6.54726562 30.35224609 6.50859375 31.38027344 6.46875 32.43945312 C6.42234375 34.04723633 6.42234375 34.04723633 6.375 35.6875 C6.33632812 36.77095703 6.29765625 37.85441406 6.2578125 38.97070312 C6.16349491 41.64696467 6.07789995 44.32321843 6 47 C4.02 47 2.04 47 0 47 C0 31.49 0 15.98 0 0 Z " fill="#090909" transform="translate(200,292)"/>
<path d="M0 0 C3.76110572 0.02155361 5.955079 0.3286021 8.875 2.75 C12.6182723 6.78121632 12.70287018 9.46980059 12.671875 14.82421875 C12.09289966 18.93368504 10.31335071 20.58849577 7.3125 23.375 C3.59796768 25.23226616 -0.64329425 24.96001089 -4.6875 24.375 C-7.51174288 22.18477082 -9.10258603 20.54482793 -10.6875 17.375 C-11.30915748 11.86001005 -11.75154786 7.73916392 -8.25 3.25 C-7.404375 2.63125 -6.55875 2.0125 -5.6875 1.375 C-4.05531064 -0.25718936 -2.24806873 0.08736889 0 0 Z " fill="#FBFBFB" transform="translate(145.6875,309.625)"/>
<path d="M0 0 C3.85544798 1.99657127 5.59805092 3.39707638 8 7 C8 7.99 8 8.98 8 10 C6.02 10 4.04 10 2 10 C1.67 8.68 1.34 7.36 1 6 C-0.64574566 5.97311849 -2.29161413 5.95365877 -3.9375 5.9375 C-5.31228516 5.92009766 -5.31228516 5.92009766 -6.71484375 5.90234375 C-8.96593327 5.74050951 -8.96593327 5.74050951 -10 7 C-10.04080783 8.99958364 -10.04254356 11.00045254 -10 13 C-8.87980469 13.31453125 -7.75960937 13.6290625 -6.60546875 13.953125 C-5.132593 14.38466821 -3.65994854 14.81700137 -2.1875 15.25 C-1.44951172 15.45496094 -0.71152344 15.65992188 0.04882812 15.87109375 C3.28907522 16.83876935 5.51997402 17.54886879 8.01171875 19.890625 C9.76857118 23.64042861 9.19151286 27.1186647 8 31 C4.13160253 34.96758714 1.17885069 36.17158721 -4.25 36.3125 C-9.31866621 36.25942496 -12.17302107 35.53995551 -16 32 C-19 27.8 -19 27.8 -19 25 C-17.02 25 -15.04 25 -13 25 C-12.71125 25.639375 -12.4225 26.27875 -12.125 26.9375 C-11.17176549 29.15206079 -11.17176549 29.15206079 -9 30 C-7.50350638 30.12005453 -6.00125207 30.17531451 -4.5 30.1875 C-3.7059375 30.20167969 -2.911875 30.21585937 -2.09375 30.23046875 C0.22033317 30.19666303 0.22033317 30.19666303 2 28 C2.16687448 25.41645782 2.16687448 25.41645782 2 23 C1.43152344 22.81824219 0.86304688 22.63648438 0.27734375 22.44921875 C-12.61284609 18.25291321 -12.61284609 18.25291321 -15.9375 15.25 C-17.51129821 11.91725085 -17.51061489 9.63813107 -17 6 C-11.923934 -0.14471147 -7.68298986 -0.87199578 0 0 Z " fill="#0B0B0B" transform="translate(187,304)"/>
<path d="M0 0 C3.41524351 1.89586352 5.6757776 3.9418886 7.75 7.3125 C7.75 8.3025 7.75 9.2925 7.75 10.3125 C5.0625 10.625 5.0625 10.625 1.75 10.3125 C1.0075 9.4875 0.265 8.6625 -0.5 7.8125 C-3.5175844 5.06924145 -4.33595197 4.83923044 -8.25 4.625 C-12.17994844 4.8478926 -13.13283317 5.22110987 -16.375 7.75 C-18.99996589 11.67814045 -19.03943023 15.76067892 -18.25 20.3125 C-16.86019502 23.28162882 -15.55342972 25.00907028 -13.25 27.3125 C-9.86900614 27.88098569 -6.63213531 27.86457597 -3.25 27.3125 C-0.49958334 24.89583229 -0.49958334 24.89583229 1.75 22.3125 C5.0625 22 5.0625 22 7.75 22.3125 C6.50749216 27.28253138 5.0497891 29.51263733 0.75 32.3125 C-3.43068651 34.57233055 -7.58070258 34.89156641 -12.25 34.3125 C-18.18814642 32.21668362 -21.49166297 28.41052238 -24.5625 23 C-25.87733459 17.86019206 -25.86767906 13.16553717 -24.1875 8.125 C-18.32686725 -0.38237011 -9.9196005 -4.59824472 0 0 Z " fill="#0D0D0D" transform="translate(119.25,305.6875)"/>
<path d="M0 0 C4.02636996 2.35056957 6.78864672 4.66871624 8.68359375 9.05078125 C8.68359375 9.71078125 8.68359375 10.37078125 8.68359375 11.05078125 C5.99609375 11.36328125 5.99609375 11.36328125 2.68359375 11.05078125 C1.94109375 10.22578125 1.19859375 9.40078125 0.43359375 8.55078125 C-2.60001378 5.79295622 -3.38489616 5.60025655 -7.31640625 5.42578125 C-11.21585536 5.61174604 -12.16146309 5.93062125 -15.37890625 8.42578125 C-18.43382743 12.56470672 -18.66144669 14.87517469 -18.31640625 20.05078125 C-16.73916323 24.0314422 -15.90639714 25.65745399 -12.31640625 28.05078125 C-10.16849696 28.36678314 -10.16849696 28.36678314 -7.87890625 28.30078125 C-7.11707031 28.3059375 -6.35523438 28.31109375 -5.5703125 28.31640625 C-3.03350816 28.01744144 -1.46710424 27.42065258 0.68359375 26.05078125 C1.34359375 25.06078125 2.00359375 24.07078125 2.68359375 23.05078125 C5.80859375 22.86328125 5.80859375 22.86328125 8.68359375 23.05078125 C6.49909332 28.26931006 4.15903414 30.7874393 -0.31640625 34.05078125 C-5.09326568 35.64306773 -9.77482854 36.04511779 -14.54296875 34.1796875 C-19.20079512 31.5193185 -22.8046973 28.34176259 -24.31640625 23.05078125 C-25.24781119 16.65349995 -25.52214031 10.87953685 -21.69140625 5.42578125 C-15.9415335 -0.91245057 -8.14559328 -3.33790753 0 0 Z " fill="#0C0C0C" transform="translate(340.31640625,304.94921875)"/>
<path d="M0 0 C1.98 0 3.96 0 6 0 C6 15.18 6 30.36 6 46 C4.02 46 2.04 46 0 46 C0 30.82 0 15.64 0 0 Z " fill="#151515" transform="translate(394,293)"/>
<path d="M0 0 C1.65 0 3.3 0 5 0 C5 15.51 5 31.02 5 47 C3.35 47 1.7 47 0 47 C0 31.49 0 15.98 0 0 Z " fill="#000000" transform="translate(239,292)"/>
<path d="M0 0 C2.36290557 2.13731198 3.62888368 3.99661415 4.82421875 6.94140625 C5.13037109 7.68970703 5.43652344 8.43800781 5.75195312 9.20898438 C6.06068359 9.98564453 6.36941406 10.76230469 6.6875 11.5625 C7.00783203 12.34302734 7.32816406 13.12355469 7.65820312 13.92773438 C10 19.71481876 10 19.71481876 10 22 C4.06 22 -1.88 22 -8 22 C-6.875 15.25 -6.875 15.25 -5.37109375 11.9140625 C-5.05849609 11.21152344 -4.74589844 10.50898438 -4.42382812 9.78515625 C-4.09833984 9.07230469 -3.77285156 8.35945313 -3.4375 7.625 C-3.10814453 6.88894531 -2.77878906 6.15289062 -2.43945312 5.39453125 C-1.63252195 3.59355443 -0.8171174 1.79637819 0 0 Z " fill="#EFEFEF" transform="translate(369,302)"/>
<path d="M0 0 C1.98 0 3.96 0 6 0 C6 11.22 6 22.44 6 34 C4.02 34 2.04 34 0 34 C0 22.78 0 11.56 0 0 Z " fill="#0B0B0B" transform="translate(305,305)"/>
<path d="M0 0 C2 3 2 3 1.6875 5.625 C1 8 1 8 0 9 C-2.67058851 9.14115161 -5.32432238 9.04247107 -8 9 C-9.32561852 2.61292897 -9.32561852 2.61292897 -7.9375 0 C-4.99948754 -1.51639353 -3.09843192 -0.92293717 0 0 Z " fill="#467BC3" transform="translate(210,373)"/>
<path d="M0 0 C2 3 2 3 1.625 5.1875 C1.41875 5.785625 1.2125 6.38375 1 7 C1 6.01 1 5.02 1 4 C-2.3 4 -5.6 4 -9 4 C-8.67 2.68 -8.34 1.36 -8 0 C-5.06791253 -1.46604374 -3.11702298 -0.77925574 0 0 Z " fill="#9BB8DE" transform="translate(210,373)"/>
<path d="M0 0 C1.67542976 0.28604898 3.34385343 0.61781233 5 1 C6.125 4.75 6.125 4.75 5 7 C2.625 7.125 2.625 7.125 0 7 C-0.66 6.34 -1.32 5.68 -2 5 C-1.46428571 1.46428571 -1.46428571 1.46428571 0 0 Z " fill="#0E0E0E" transform="translate(306,291)"/>
<path d="M0 0 C0.99 0 1.98 0 3 0 C3 0.99 3 1.98 3 3 C2.34 3 1.68 3 1 3 C0.79375 3.763125 0.5875 4.52625 0.375 5.3125 C-1.55894391 10.49898594 -4.2785146 15.19033084 -7 20 C-7.33 19.34 -7.66 18.68 -8 18 C-6.94284618 15.64355098 -5.83837249 13.39891563 -4.625 11.125 C-1.71672386 5.79161441 -1.71672386 5.79161441 0 0 Z " fill="#3E76C1" transform="translate(276,331)"/>
</svg>
